<svg width="89" height="24" viewBox="0 0 89 24" fill="none" xmlns="http://www.w3.org/2000/svg">
<path d="M16.9603 10.2725H9.562C9.3713 10.2725 9.21727 10.4264 9.21727 10.6193V14.2347C9.21727 14.4252 9.3713 14.5816 9.562 14.5816H12.4494V19.0739C12.4494 19.0739 11.8015 19.2937 10.0094 19.2937C7.89458 19.2937 4.94114 18.5218 4.94114 12.0337C4.94114 5.54321 8.01682 4.69067 10.9042 4.69067C13.4029 4.69067 14.4811 5.13037 15.1657 5.3429C15.3809 5.40885 15.5789 5.19389 15.5789 5.00335L16.4053 1.51015C16.4053 1.41976 16.3759 1.31228 16.2732 1.24144C15.9921 1.03625 14.2953 0.0884399 10.007 0.0884399C5.06827 0.0884399 0 2.18924 0 12.2829C0 22.379 5.80174 23.8813 10.6915 23.8813C14.7403 23.8813 17.195 22.1518 17.195 22.1518C17.2952 22.0956 17.3074 21.9539 17.3074 21.8904V10.6193C17.3074 10.4264 17.151 10.2725 16.9603 10.2725Z" fill="#161516"/>
<path d="M55.0982 1.29762C55.0982 1.10464 54.9466 0.950745 54.7559 0.950745H50.5898C50.3991 0.950745 50.2451 1.10708 50.2451 1.29762V9.34175H43.7514V1.29762C43.7514 1.10464 43.5974 0.950745 43.4067 0.950745H39.2406C39.0499 0.950745 38.8959 1.10708 38.8959 1.29762V23.0825C38.8959 23.2755 39.0499 23.4318 39.2406 23.4318H43.4067C43.5974 23.4318 43.7514 23.2755 43.7514 23.0825V13.7632H50.2451L50.2329 23.08C50.2329 23.273 50.3869 23.4294 50.5776 23.4294H54.7535C54.9442 23.4294 55.0958 23.273 55.0982 23.08V1.29762V1.29762Z" fill="#161516"/>
<path d="M24.8231 4.15569C24.8231 2.65581 23.6202 1.44418 22.1361 1.44418C20.6545 1.44418 19.4491 2.65581 19.4491 4.15569C19.4491 5.65312 20.652 6.86719 22.1361 6.86719C23.6202 6.86964 24.8231 5.65312 24.8231 4.15569Z" fill="#161516"/>
<path d="M24.5246 18.4876C24.5246 17.9282 24.5246 8.43303 24.5246 8.43303C24.5246 8.24249 24.3705 8.08615 24.1798 8.08615H20.026C19.8353 8.08615 19.6641 8.28157 19.6641 8.47456C19.6641 8.47456 19.6641 20.5737 19.6641 22.8822C19.6641 23.3048 19.9282 23.4318 20.2704 23.4318C20.2704 23.4318 22.043 23.4318 24.0136 23.4318C24.4243 23.4318 24.5246 23.2315 24.5246 22.8748C24.5246 22.1005 24.5246 19.0739 24.5246 18.4876Z" fill="#161516"/>
<path d="M70.9314 8.11792H66.797C66.6063 8.11792 66.4523 8.27426 66.4523 8.46724V19.1496C66.4523 19.1496 65.401 19.9166 63.9121 19.9166C62.4207 19.9166 62.0246 19.24 62.0246 17.7816C62.0246 16.3208 62.0246 8.46724 62.0246 8.46724C62.0246 8.27426 61.8706 8.11792 61.6799 8.11792H57.4844C57.2962 8.11792 57.1397 8.27426 57.1397 8.46724C57.1397 8.46724 57.1397 14.1565 57.1397 18.4876C57.1397 22.8187 59.5553 23.8788 62.8803 23.8788C65.6064 23.8788 67.8068 22.3741 67.8068 22.3741C67.8068 22.3741 67.9119 23.168 67.9584 23.2608C68.0048 23.3536 68.1295 23.4489 68.2615 23.4489L70.9314 23.4367C71.1196 23.4367 71.2761 23.2804 71.2761 23.0898L71.2737 8.46724C71.2785 8.27426 71.1221 8.11792 70.9314 8.11792Z" fill="#161516"/>
<path d="M82.2342 7.62691C79.8846 7.62691 78.2881 8.67487 78.2881 8.67487V1.29762C78.2881 1.10464 78.1341 0.950745 77.9434 0.950745H73.765C73.5743 0.950745 73.4203 1.10708 73.4203 1.29762V23.0825C73.4203 23.2755 73.5743 23.4318 73.765 23.4318C73.765 23.4318 76.6622 23.4318 76.6647 23.4318C76.7943 23.4318 76.8945 23.3634 76.9679 23.2461C77.0388 23.1289 77.1439 22.2422 77.1439 22.2422C77.1439 22.2422 78.8529 23.8593 82.0875 23.8593C85.8844 23.8593 88.0628 21.9344 88.0628 15.2191C88.0604 8.50631 84.5837 7.62691 82.2342 7.62691ZM80.6034 19.902C79.1683 19.858 78.1976 19.2082 78.1976 19.2082V12.3097C78.1976 12.3097 79.1585 11.721 80.3345 11.616C81.8234 11.4816 83.2586 11.9311 83.2586 15.4805C83.2561 19.2229 82.6082 19.963 80.6034 19.902Z" fill="#161516"/>
<path d="M36.4999 8.08128H33.3753C33.3753 8.08128 33.3704 3.95784 33.3704 3.95539C33.3704 3.79906 33.2898 3.72089 33.1088 3.72089H28.8498C28.6836 3.72089 28.5955 3.79417 28.5955 3.95295V8.21563C28.5955 8.21563 26.4611 8.73106 26.3169 8.77259C26.1726 8.81412 26.0675 8.94603 26.0675 9.10481V11.7846C26.0675 11.9775 26.2215 12.1314 26.4122 12.1314H28.5955C28.5955 12.1314 28.5955 14.9333 28.5955 18.5755C28.5955 23.3634 31.9573 23.8324 34.2237 23.8324C35.2603 23.8324 36.4999 23.5002 36.7053 23.4245C36.83 23.3781 36.9009 23.251 36.9009 23.1118L36.9033 20.1658C36.9033 19.9728 36.742 19.8189 36.5586 19.8189C36.3777 19.8189 35.9107 19.8922 35.4315 19.8922C33.8961 19.8922 33.3753 19.1789 33.3753 18.2555C33.3753 17.3321 33.3753 12.1314 33.3753 12.1314H36.4999C36.6906 12.1314 36.8446 11.9751 36.8446 11.7846V8.4306C36.8446 8.23762 36.6906 8.08128 36.4999 8.08128Z" fill="#161516"/>
</svg>
