<svg width="71" height="69" viewBox="0 0 71 69" fill="none" xmlns="http://www.w3.org/2000/svg">
<path fill-rule="evenodd" clip-rule="evenodd" d="M35.0302 0C15.6765 0 0 15.8276 0 35.3679C0 51.0001 10.0424 64.2441 23.9555 68.9337C25.6974 69.2594 26.3425 68.1738 26.3425 67.2185C26.3425 66.3718 26.321 64.1572 26.2995 61.2045C16.5581 63.3322 14.4938 56.4714 14.4938 56.4714C12.9024 52.3896 10.6015 51.2824 10.6015 51.2824C7.41891 49.0895 10.8381 49.1329 10.8381 49.1329C14.3432 49.3935 16.2141 52.7804 16.2141 52.7804C19.3322 58.1866 24.4071 56.6234 26.407 55.7115C26.7296 53.4318 27.6327 51.8686 28.6219 50.9784C20.859 50.1099 12.6874 47.0703 12.6874 33.5224C12.6874 29.6578 14.0422 26.5096 16.3001 24.0345C15.9345 23.1227 14.7303 19.5403 16.6227 14.6769C16.6227 14.6769 19.5687 13.7216 26.2565 18.3027C29.052 17.5211 32.0411 17.1303 35.0302 17.1086C37.9977 17.1303 41.0083 17.5211 43.8038 18.3027C50.4916 13.7216 53.4376 14.6769 53.4376 14.6769C55.3515 19.5403 54.1473 23.1444 53.7817 24.0345C56.0181 26.5096 57.3729 29.6578 57.3729 33.5224C57.3729 47.1138 49.1798 50.0882 41.3739 50.9784C42.6211 52.064 43.7608 54.2351 43.7608 57.5352C43.7608 62.2683 43.7178 66.0678 43.7178 67.2402C43.7178 68.1955 44.3414 69.2811 46.1263 68.9337C60.0394 64.2441 70.0603 51.0001 70.0603 35.3896C70.0603 15.8276 54.3838 0 35.0302 0Z" fill="#1E1D16"/>
</svg>
